<?xml version="1.0" encoding="utf-8"?>
<!DOCTYPE svg PUBLIC "-//W3C//DTD SVG 1.0//EN" "http://www.w3.org/TR/2001/REC-SVG-20010904/DTD/svg10.dtd">
<svg version="1.0" xmlns="http://www.w3.org/2000/svg" width="559px" height="397px" viewBox="0 0 559 397" preserveAspectRatio="xMidYMid meet">
 <g fill="#ffffff">
  <path d="M22.20 364.68 c-0.18 -0.41 -0.05 -8.23 0.23 -17.33 1.20 -35.76 0.60 -59.76 -2.25 -90.56 -0.51 -5.52 -0.83 -10.34 -0.69 -10.67 0.32 -0.78 3.45 -2.34 9.93 -4.92 10.48 -4.14 22.39 -6.62 33.56 -7.08 21.65 -0.83 33.60 4.96 38.62 18.62 1.15 3.13 2.11 8.04 2.99 14.89 0.14 1.20 0.46 2.30 0.69 2.44 0.28 0.14 1.61 -2.16 2.99 -5.15 2.71 -5.75 4.05 -7.54 6.67 -8.87 2.94 -1.52 24.23 -7.81 26.34 -7.81 l2.07 0 0.23 23.81 c0.23 24.27 0.64 31.26 2.62 47.90 0.51 4.18 1.24 9.33 1.61 11.49 0.97 5.38 0.92 8.14 -0.09 8.69 -2.25 1.20 -10.57 3.72 -12.23 3.72 l-1.93 0 -1.52 -5.88 c-1.65 -6.30 -2.39 -7.91 -3.72 -7.91 -1.06 0 -23.54 7.13 -25.65 8.14 -1.98 0.92 -3.08 2.76 -4.41 7.40 -0.60 2.07 -1.29 4 -1.52 4.18 -0.60 0.64 -11.35 2.80 -13.75 2.80 -2.07 0 -2.07 0 -2.07 -1.65 0 -4.46 5.33 -21.79 14.89 -48.68 1.20 -3.26 1.98 -5.75 1.75 -5.52 -0.23 0.28 -2.25 2.90 -4.46 5.93 -12.09 16.18 -23.17 25.33 -39.07 32.18 -3.26 1.43 -6.39 3.03 -6.94 3.54 -1.47 1.38 -1.84 2.76 -2.94 10.99 -0.51 3.91 -1.06 7.68 -1.20 8.37 -0.18 1.01 -0.87 1.47 -4 2.80 -5.38 2.30 -13.42 4.92 -15.08 4.92 -0.83 0 -1.47 -0.28 -1.65 -0.78z m96.86 -40.87 c4.51 -1.06 5.52 -1.47 6.76 -2.71 1.47 -1.47 1.52 -1.56 0.87 -3.26 -1.01 -2.80 -4.32 -10.21 -5.15 -11.45 -1.84 -2.85 -4.51 -1.61 -7.72 3.59 -2.44 3.95 -5.79 11.40 -5.79 12.96 0 0.60 0.46 1.43 1.06 1.84 1.24 0.92 2.62 0.78 9.98 -0.97z m-65.32 -4.37 c6.71 -3.63 10.62 -7.49 13.15 -12.87 1.84 -4 1.38 -7.08 -1.56 -10.21 -3.17 -3.45 -10.48 -5.06 -13.79 -3.03 -1.52 0.92 -1.52 0.92 -1.15 3.31 0.23 1.33 0.41 4.96 0.37 8.14 0 5.19 -0.14 6.16 -1.47 10.02 -1.65 4.78 -1.70 5.19 -0.92 5.98 0.87 0.87 1.75 0.64 5.38 -1.33z"/>
  <path d="M157.08 339.17 c-0.64 -6.57 -0.87 -40.27 -0.37 -58.75 0.55 -19.72 1.15 -32.96 1.52 -33.33 0.14 -0.14 5.06 -1.47 10.94 -2.99 8.09 -2.11 11.35 -2.76 13.24 -2.67 l2.48 0.14 4.55 13.52 c8.04 23.95 10.57 30.43 12.23 31.03 2.53 1.01 4.41 -4.14 15.54 -43.30 1.61 -5.65 3.17 -10.57 3.45 -10.89 0.69 -0.83 5.93 -2.07 8.69 -2.07 2.25 0 2.34 0.05 4.18 2.53 3.22 4.37 1.98 4.32 17.70 0.51 7.59 -1.88 18.43 -4.46 24.13 -5.79 10.16 -2.34 10.44 -2.39 15.17 -2.07 7.54 0.51 9.01 0.46 15.58 -0.87 3.36 -0.64 6.94 -1.20 7.91 -1.20 l1.79 0 0 2.30 c0 1.29 -0.83 5.88 -1.84 10.25 -2.39 10.39 -6.16 29.28 -6.94 34.75 l-0.60 4.28 1.20 1.06 1.24 1.06 5.15 -1.29 c5.38 -1.38 7.17 -2.30 8.04 -4.18 0.32 -0.60 1.79 -10.80 3.36 -22.71 1.56 -11.86 2.94 -22.48 3.08 -23.58 0.28 -1.88 0.32 -1.93 2.90 -2.67 1.43 -0.41 5.29 -1.52 8.55 -2.48 13.70 -4.05 15.49 -4.28 22.20 -2.90 l3.86 0.78 5.10 -1.29 c2.85 -0.74 11.08 -2.94 18.34 -4.92 18.94 -5.10 19.22 -5.15 29.33 -4.92 l8.50 0.23 3.22 -1.98 c5.75 -3.54 21.15 -10.62 26.89 -12.41 3.17 -0.97 10.53 -0.83 13.61 0.23 3.68 1.33 8.09 4.64 11.45 8.78 1.65 1.98 3.31 3.68 3.68 3.82 1.10 0.46 5.75 -3.03 12.69 -9.56 3.63 -3.45 7.77 -7.03 9.15 -7.95 6.16 -4.09 20.92 -7.91 30.62 -7.91 4.09 0 4.32 0.14 4.32 2.94 -0.05 2.30 -2.99 14.66 -7.77 32.23 -3.45 12.50 -3.13 11.86 -5.56 12.32 -4.69 0.83 -11.86 2.80 -14.25 3.86 -3.22 1.38 -5.84 3.95 -6.48 6.25 -0.64 2.48 0.87 5.56 5.01 10.07 5.10 5.56 5.38 6.25 5.38 13.93 0 6.21 -0.05 6.57 -1.43 9.75 -3.63 8.32 -11.17 15.95 -20.41 20.59 -4.64 2.34 -8.18 3.45 -10.89 3.45 -1.79 0 -2.02 -0.14 -2.85 -1.70 -2.71 -5.47 -4.37 -12.78 -3.31 -14.76 0.28 -0.55 2.07 -2.11 3.95 -3.49 3.36 -2.48 5.33 -5.06 5.98 -7.72 0.41 -1.56 -1.20 -5.10 -4.78 -10.71 -2.80 -4.37 -3.86 -6.67 -4.37 -9.65 l-0.37 -1.79 -1.43 2.71 c-1.88 3.49 -6.94 8.87 -12.64 13.29 -2.48 1.93 -4.87 4.09 -5.29 4.87 -0.74 1.20 -0.74 1.52 -0.14 2.85 0.32 0.83 2.44 3.72 4.60 6.48 3.63 4.51 3.95 5.10 3.95 6.94 0 1.98 -0.09 2.16 -4.92 6.67 -7.03 6.62 -6.62 6.71 -13.70 -2.80 -9.33 -12.55 -10.25 -13.29 -13.84 -11.58 -2.39 1.15 -3.22 3.26 -4.60 11.91 -1.20 7.22 -1.33 7.68 -2.39 8.09 -1.79 0.69 -9.93 1.88 -11.63 1.70 -1.47 -0.14 -1.56 -0.23 -1.93 -2.44 -0.74 -4.64 0.55 -28.41 2.67 -49.65 0.60 -6.07 1.20 -12.78 1.38 -14.94 0.14 -2.16 0.37 -5.15 0.51 -6.67 0.23 -2.67 0.23 -2.71 -0.55 -1.70 -1.33 1.93 -5.47 11.63 -7.77 18.25 -1.24 3.54 -2.34 6.57 -2.48 6.76 -0.14 0.14 -4.32 1.24 -9.29 2.34 -16.50 3.82 -17.51 4.28 -18.43 8.60 -0.60 3.03 -0.28 4.73 1.24 6.25 1.33 1.33 3.26 1.43 8.96 0.41 2.16 -0.37 4.87 -0.69 6.11 -0.69 l2.16 0 0 2.85 c0 2.99 -0.83 8.64 -1.33 9.19 -0.14 0.18 -4.87 1.15 -10.48 2.16 -9.93 1.75 -12.09 2.44 -12.78 4.09 -1.56 3.68 -0.83 7.03 1.75 8.14 1.33 0.55 2.25 0.51 7.95 -0.46 3.49 -0.60 8.04 -1.43 10.07 -1.79 4.92 -0.97 8.46 -0.97 8.83 0 0.14 0.37 -0.14 3.45 -0.60 6.76 -1.06 7.03 0.46 5.93 -11.45 8.32 -15.45 3.17 -32.91 5.79 -38.25 5.79 l-2.90 0 0 -2.30 c0 -2.94 0.87 -11.26 3.49 -33.33 4.05 -34.16 4.32 -37.56 3.40 -39.35 -1.10 -2.02 -3.54 -0.32 -4.83 3.26 -3.36 9.47 -15.35 59.67 -17.01 71.30 -0.18 1.15 -0.46 2.34 -0.69 2.71 -0.41 0.69 -11.77 3.17 -14.57 3.22 -1.93 0 -1.98 -0.05 -1.98 -1.61 0 -0.87 0.41 -6.34 0.92 -12.23 0.87 -9.84 0.92 -10.71 0.23 -11.77 -0.41 -0.60 -1.01 -1.06 -1.29 -0.92 -0.32 0.09 -2.85 0.97 -5.65 1.93 -6.44 2.16 -10.71 4.28 -11.77 5.75 -0.92 1.33 -2.62 7.86 -4.05 15.86 -0.60 3.13 -1.29 5.75 -1.65 6.02 -0.74 0.60 -9.24 2.02 -11.86 2.02 l-1.65 0 0 -3.77 c0 -3.82 1.20 -17.74 3.49 -40.36 1.29 -12.27 1.24 -14.39 -0.09 -14.89 -0.69 -0.28 -9.42 1.75 -14.20 3.26 -4.32 1.33 -5.10 2.62 -8.41 13.47 -2.30 7.49 -10.53 36.13 -12.55 43.58 -0.83 3.13 -1.24 3.95 -2.11 4.28 -1.84 0.69 -11.22 2.25 -13.56 2.25 l-2.21 0 0 -2.44 c0 -2.34 1.84 -25.51 2.76 -34.57 0.28 -2.53 0.60 -7.59 0.74 -11.26 0.28 -6.30 0.28 -6.71 -0.64 -7.49 -0.87 -0.78 -1.06 -0.78 -5.19 0.18 -6.53 1.52 -8.41 2.67 -9.79 5.98 -1.56 3.82 -9.98 40.09 -11.77 50.84 -0.51 3.13 -0.60 3.36 -1.98 3.77 -2.94 0.92 -10.76 1.93 -13.84 1.79 l-3.17 -0.14 -1.70 -5.06 c-2.30 -6.80 -3.72 -10.16 -6.80 -15.77 -2.76 -5.10 -4.23 -6.99 -5.38 -6.99 -0.37 0 -1.43 0.69 -2.30 1.52 -2.25 2.07 -2.53 4.14 -2.53 18.07 l0 11.63 -1.33 0.92 c-3.03 2.16 -8.96 4.64 -11.12 4.64 l-2.11 0 -0.28 -2.85z m294.35 -81.41 c3.17 -1.33 7.17 -3.95 9.65 -6.34 6.99 -6.76 3.45 -14.48 -6.76 -14.80 -4.60 -0.09 -7.03 1.65 -7.03 5.15 0 1.43 -1.20 11.35 -1.65 13.42 -0.14 0.87 0.09 1.47 1.01 2.39 1.47 1.47 1.56 1.52 4.78 0.18z"/>
  <path d="M25.01 204.06 c-0.55 -0.92 0.37 -10.39 3.03 -30.75 3.03 -23.12 3.91 -34.80 4.64 -62.75 0.37 -13.15 0.69 -19.49 1.06 -19.81 0.55 -0.60 17.28 -6.16 25.93 -8.69 3.13 -0.87 6.48 -1.61 7.45 -1.61 l1.79 0 -0.09 28.18 c-0.05 21.01 0.05 28.82 0.46 30.85 1.43 6.67 4.46 5.70 8.04 -2.53 2.48 -5.79 8.50 -23.95 14.16 -42.71 3.31 -11.08 4.92 -15.63 5.56 -16.18 2.16 -1.79 29.93 -10.07 34.16 -10.21 l2.34 -0.05 0.14 1.70 c0.09 1.06 -0.92 5.75 -2.62 11.95 -4.14 15.35 -8.64 33.19 -9.47 37.60 -0.41 2.16 -0.83 4.32 -0.97 4.83 -0.14 0.51 1.43 -2.44 3.45 -6.53 4.73 -9.70 8 -14.66 12.64 -19.26 6.34 -6.25 14.57 -9.65 24.78 -10.16 12.14 -0.64 19.49 2.48 23.95 10.11 0.69 1.20 1.98 4.18 2.85 6.62 0.87 2.48 1.70 4.83 1.84 5.19 0.37 1.06 0.83 0 2.25 -5.29 1.88 -7.08 4.41 -14.62 5.24 -15.58 1.06 -1.20 6.34 -3.77 10.99 -5.33 14.85 -4.96 33.74 -4.83 44.64 0.32 1.38 0.69 3.77 2.39 5.24 3.82 1.47 1.43 2.76 2.44 2.90 2.25 0.09 -0.18 0.74 -2.90 1.33 -6.02 0.64 -3.13 1.29 -5.98 1.38 -6.39 0.28 -0.83 3.26 -1.70 19.54 -5.93 4.92 -1.24 9.93 -2.30 11.17 -2.30 l2.16 0 0 1.61 c0 0.87 -1.10 5.65 -2.48 10.67 -1.38 5.01 -3.86 14.71 -5.56 21.51 -6.07 24.73 -8.46 36.64 -7.86 38.98 0.46 1.88 2.34 2.62 5.33 2.11 6.94 -1.20 16.23 -3.40 17.42 -4.14 2.76 -1.65 2.71 -1.43 3.95 -22.99 1.20 -20.50 2.85 -43.53 3.31 -45.33 0.14 -0.55 0.55 -1.10 0.97 -1.24 0.46 -0.14 7.72 -1.38 16.14 -2.80 16.27 -2.71 25.79 -4.46 34.66 -6.39 2.99 -0.64 6.76 -1.20 8.37 -1.20 2.85 0 2.94 0.05 4.51 1.88 l1.61 1.84 1.79 -0.87 c3.82 -1.93 12 -4.23 15.08 -4.23 1.65 0 2.99 0.14 2.99 0.28 0 0.97 2.44 17.19 3.03 20.18 1.38 6.80 2.76 8.87 5.01 7.40 1.43 -0.97 3.22 -4.78 9.15 -19.91 2.71 -6.85 5.19 -12.78 5.47 -13.19 1.10 -1.52 17.10 -4.32 27.03 -4.73 6.21 -0.28 6.30 -0.28 6.85 0.78 0.37 0.69 0.51 2.25 0.37 4.32 -0.37 5.75 -2.48 9.70 -37.97 70.61 -16.18 27.81 -30.20 50.34 -33.56 53.92 -0.87 0.92 -1.61 1.24 -2.90 1.24 -1.93 0 -2.16 -0.23 -6.80 -7.72 -3.17 -5.15 -3.13 -6.02 0.32 -11.91 9.10 -15.31 16.96 -30.52 19.17 -37.10 1.15 -3.49 1.20 -3.63 0.37 -4.51 -0.46 -0.51 -2.25 -1.65 -4.05 -2.53 -6.85 -3.45 -13.19 -8.73 -14.62 -12.14 -0.32 -0.87 -0.78 -2.57 -0.92 -3.86 -0.18 -1.24 -0.51 -2.44 -0.78 -2.71 -0.23 -0.23 -2.57 0.23 -6.07 1.29 -3.13 0.92 -10.71 2.99 -16.87 4.60 -6.21 1.65 -11.72 3.31 -12.41 3.82 -1.84 1.33 -2.80 3.68 -2.80 6.71 0 2.21 0.18 2.85 1.15 3.77 1.43 1.47 2.39 1.47 10.48 -0.23 3.68 -0.74 7.40 -1.38 8.32 -1.38 l1.65 0 0 2.76 c0 1.47 -0.23 4.28 -0.51 6.21 -0.46 2.90 -0.74 3.59 -1.52 3.91 -0.51 0.23 -5.61 1.61 -11.26 2.99 -5.70 1.43 -10.94 2.90 -11.68 3.26 -1.61 0.87 -2.62 3.13 -2.62 6.02 0 2.48 0.87 4.09 2.53 4.73 0.74 0.28 4.18 -0.32 11.95 -2.11 6.02 -1.38 11.72 -2.48 12.69 -2.48 l1.79 0 -0.05 2.67 c-0.05 4.14 -0.64 9.24 -1.15 9.75 -0.78 0.78 -48.04 12.46 -49.83 12.32 l-1.61 -0.14 -0.23 -2.85 c-0.37 -4.83 -0.14 -4.78 -11.54 -1.52 -15.31 4.37 -33.70 8.83 -35.95 8.64 l-1.93 -0.14 0.14 -4.60 c0.05 -2.53 0.74 -12.37 1.47 -21.84 1.84 -23.44 1.84 -24.36 0.09 -24.36 -1.84 0.05 -3.13 1.88 -4.28 5.98 -1.93 6.99 -3.91 9.33 -12.60 14.99 -9.42 6.11 -11.17 7.91 -10.62 10.99 0.18 0.83 1.47 3.36 2.90 5.56 6.16 9.70 7.03 11.31 7.03 13.10 0 1.52 -0.18 1.88 -1.47 2.53 -2.90 1.52 -9.38 3.45 -12.37 3.72 l-2.99 0.28 -2.90 -5.24 c-4.09 -7.31 -7.63 -12.64 -8.78 -13.29 -0.78 -0.41 -1.20 -0.37 -2.11 0.18 -1.61 1.10 -2.67 3.49 -4.32 10.07 -1.06 4.09 -1.79 6.02 -2.34 6.34 -1.47 0.78 -11.58 3.22 -14.48 3.49 -2.67 0.23 -2.85 0.18 -3.17 -0.78 -0.69 -2.21 0.69 -17.97 3.22 -36.27 0.64 -4.64 1.10 -8.55 1.01 -8.60 -0.09 -0.09 -1.06 2.67 -2.11 6.16 -6.34 20.36 -12.41 32.36 -19.45 38.39 -3.59 3.08 -8.78 5.93 -14.07 7.72 -4.28 1.47 -4.73 1.52 -11.58 1.56 -5.75 0 -7.54 -0.14 -9.24 -0.83 -5.38 -2.07 -9.01 -6.11 -13.15 -14.48 l-2.62 -5.38 -0.83 3.45 c-0.41 1.88 -1.43 7.13 -2.21 11.68 -0.78 4.51 -1.52 8.41 -1.65 8.64 -0.37 0.55 -6.21 3.22 -10.39 4.73 -1.75 0.64 -4.18 1.15 -5.38 1.15 -1.93 0 -2.30 -0.14 -2.53 -1.01 -0.14 -0.60 -0.28 -6.02 -0.28 -12.09 -0.05 -17.47 -0.69 -20.82 -3.68 -19.31 -2.16 1.10 -3.54 3.22 -5.01 7.68 -1.43 4.37 -3.91 14.07 -5.33 20.92 -0.46 2.11 -1.06 4 -1.33 4.23 -1.15 0.97 -14.66 4.64 -17.06 4.64 l-2.39 0 -0.28 -2.39 c-0.18 -1.33 -0.60 -7.59 -1.01 -13.93 -0.74 -11.95 -1.20 -14.94 -2.30 -14.94 -0.37 0 -1.38 0.64 -2.30 1.43 -2.48 2.21 -3.49 5.98 -7.95 30.06 -0.28 1.65 -0.51 1.84 -2.34 2.39 -5.33 1.52 -16.23 2.48 -16.87 1.47z m122.79 -41.37 c7.49 -2.80 13.29 -13.24 11.72 -21.01 -1.10 -5.24 -3.95 -9.19 -7.86 -10.85 -3.91 -1.61 -8.92 2.62 -12.69 10.76 -5.10 10.99 -4.18 19.03 2.48 21.38 2.39 0.87 3.36 0.83 6.34 -0.28z m72.04 -19.91 c4.73 -1.93 7.86 -5.24 9.01 -9.52 0.87 -3.31 -1.79 -7.45 -5.84 -9.01 -2.53 -0.97 -6.39 -1.06 -8.04 -0.14 -1.98 1.01 -2.57 2.76 -3.03 8.83 -0.64 8.14 -0.64 8.09 0.87 9.61 1.70 1.65 3.40 1.70 7.03 0.23z"/>
 </g>
 <g fill="#050707">
  <path d="M23.08 371.21 c-0.51 -0.64 -1.33 -1.15 -1.84 -1.15 -1.38 0 -3.17 -1.65 -3.77 -3.49 -0.41 -1.20 -0.46 -3.68 -0.28 -8.41 1.70 -37.83 1.06 -71.48 -1.84 -102.74 -0.83 -8.69 -0.69 -10.48 0.83 -12.09 1.98 -2.16 10.89 -6.11 20.14 -8.92 12.50 -3.86 26.75 -5.65 36.78 -4.60 9.93 1.06 17.01 3.63 24.09 8.78 6.44 4.69 7.72 6.11 9.47 10.67 1.29 3.36 1.65 3.95 2.21 3.49 0.51 -0.46 0.74 -0.37 1.06 0.23 0.41 0.74 0.64 0.69 2.62 -0.32 4.32 -2.11 28.13 -9.47 30.80 -9.47 1.98 0 3.63 1.01 4.23 2.57 0.23 0.60 0.74 1.10 1.15 1.10 0.60 0 0.69 2.21 0.74 18.07 0.05 9.88 0.23 20.50 0.41 23.54 l0.28 5.52 0.09 -5.52 c0.14 -7.68 0.92 -30.80 1.29 -35.99 0.23 -3.49 0.37 -4.18 0.87 -3.77 0.51 0.41 0.74 0.14 1.15 -1.38 0.55 -2.11 2.02 -3.72 4.05 -4.51 3.45 -1.38 23.58 -6.21 25.97 -6.25 2.48 -0.05 2.80 0.09 4 1.43 0.74 0.83 1.88 1.61 2.53 1.79 0.64 0.14 1.15 0.60 1.15 0.97 0 0.92 10.16 31.03 10.67 31.58 0.18 0.28 0.37 0.05 0.37 -0.55 0 -0.60 0.28 -1.01 0.69 -1.01 0.37 0 0.69 0.23 0.69 0.55 0 1.93 1.47 -2.53 6.44 -19.86 3.08 -10.76 5.88 -20.18 6.30 -21.01 0.37 -0.78 1.15 -1.75 1.70 -2.11 1.38 -0.92 6.48 -2.48 10.11 -3.13 3.49 -0.60 5.56 0.09 7.22 2.30 0.55 0.78 1.38 1.43 1.84 1.43 0.41 0 1.29 0.41 1.93 0.92 0.64 0.51 1.47 0.92 1.88 0.92 0.41 0 6.71 -1.43 13.98 -3.17 32.73 -7.91 33.05 -7.95 39.53 -6.85 2.85 0.46 3.77 0.41 10.02 -0.78 3.77 -0.69 8.18 -1.38 9.88 -1.47 2.76 -0.23 3.13 -0.14 4.46 1.01 0.83 0.69 1.47 1.52 1.47 1.88 0 0.37 0.41 0.64 0.92 0.64 0.55 0 0.92 0.32 0.97 0.83 0 0.69 0.05 0.69 0.37 -0.09 0.23 -0.64 0.46 -0.74 0.69 -0.32 0.28 0.41 0.83 0.05 1.93 -1.24 0.83 -1.01 2.11 -2.02 2.80 -2.34 3.22 -1.29 24.09 -6.99 26.57 -7.22 1.79 -0.18 4 0 6.21 0.46 5.88 1.24 4.18 1.56 31.26 -5.70 6.44 -1.75 13.47 -3.49 15.58 -3.86 4.05 -0.78 12.55 -0.92 16.27 -0.32 1.70 0.28 2.48 0.18 3.49 -0.37 9.70 -5.61 20.73 -10.80 27.90 -13.19 7.31 -2.44 13.52 -2.07 19.86 1.15 3.45 1.75 5.15 3.08 9.10 6.94 l3.22 3.22 1.43 -1.06 c0.74 -0.55 3.95 -3.45 7.08 -6.39 9.24 -8.69 11.86 -10.39 20.50 -13.19 9.29 -3.08 19.40 -4.55 25.19 -3.77 2.94 0.41 3.36 0.60 4.83 2.30 0.92 1.06 1.88 1.88 2.21 1.88 1.75 0 0.18 7.31 -7.54 35.63 -3.63 13.42 -3.95 14.34 -5.42 15.72 -0.97 0.87 -2.30 1.56 -3.36 1.75 -9.65 1.61 -17.19 4.09 -17.51 5.79 -0.09 0.41 0.69 1.75 1.70 2.99 1.06 1.24 3.13 3.77 4.64 5.56 3.17 3.91 4.09 6.34 4.41 12.09 0.55 8.64 -2.57 17.15 -9.01 24.69 -6.44 7.59 -16.32 14.07 -24.59 16.18 -1.24 0.32 -2.80 0.83 -3.36 1.10 -0.92 0.46 -1.20 0.37 -1.84 -0.46 -0.46 -0.55 -1.47 -1.10 -2.30 -1.29 -1.93 -0.41 -3.86 -2.39 -5.38 -5.52 -1.20 -2.62 -1.52 -2.90 -2.39 -2.02 -0.37 0.37 -0.64 -0.18 -1.06 -1.84 l-0.55 -2.34 -4.87 4.55 c-6.07 5.61 -7.26 6.62 -9.24 7.63 -1.43 0.74 -1.65 0.74 -2.11 0.09 -0.28 -0.41 -1.10 -0.87 -1.79 -1.06 -1.75 -0.41 -3.40 -2.21 -8.23 -8.64 -4.14 -5.47 -5.15 -6.44 -5.84 -5.33 -0.28 0.46 -0.78 0 -1.88 -1.52 -0.83 -1.20 -1.56 -2.11 -1.61 -2.02 -0.05 0.05 -0.55 3.31 -1.10 7.22 -1.06 7.22 -1.52 8.78 -3.08 10.21 -1.01 0.97 -6.62 2.48 -10.71 2.94 -1.52 0.18 -2.90 0.51 -3.03 0.69 -0.46 0.78 -1.93 0.41 -2.16 -0.51 -0.14 -0.55 -0.64 -0.92 -1.24 -0.92 -0.55 0 -1.75 -0.37 -2.67 -0.78 -1.20 -0.55 -1.70 -0.64 -1.84 -0.23 -0.60 1.79 -2.85 -1.10 -2.85 -3.63 0 -1.79 -0.46 -0.60 -0.97 2.34 -0.60 3.63 -1.43 5.29 -3.22 6.21 -1.70 0.92 -10.85 2.94 -22.89 5.10 -4.96 0.87 -10.67 1.88 -12.69 2.25 -2.02 0.37 -6.44 1.01 -9.84 1.38 -3.40 0.41 -6.44 0.92 -6.76 1.20 -0.55 0.46 -2.02 -0.55 -2.02 -1.43 0 -0.23 -0.74 -0.64 -1.61 -0.92 -0.87 -0.28 -1.88 -0.97 -2.25 -1.47 -0.46 -0.64 -1.01 -0.87 -1.61 -0.69 -1.47 0.37 -1.61 -2.48 -0.55 -12.96 0.55 -5.15 0.92 -9.42 0.83 -9.52 -0.09 -0.09 -1.24 5.38 -2.57 12.14 -1.38 6.76 -2.76 12.83 -3.13 13.52 -0.97 1.93 -3.40 2.90 -11.40 4.46 -4.05 0.78 -7.95 1.65 -8.73 1.88 -1.15 0.41 -1.52 0.32 -2.07 -0.37 -0.41 -0.46 -1.29 -1.01 -1.98 -1.20 -0.69 -0.14 -1.56 -0.78 -1.98 -1.43 -0.69 -1.06 -0.69 -1.75 0 -8.60 0.92 -9.47 0.92 -10.02 0 -10.02 -0.64 0 -0.69 -0.32 -0.46 -1.84 l0.28 -1.79 -3.08 1.15 c-5.70 2.11 -5.19 1.20 -7.81 14.62 -2.30 11.81 -1.88 11.40 -13.29 13.33 -6.25 1.06 -6.39 1.06 -7.17 0.23 -0.41 -0.46 -1.20 -0.87 -1.75 -0.87 -1.52 0 -2.67 -0.78 -3.49 -2.39 -0.64 -1.24 -0.69 -2.30 -0.46 -6.57 0.28 -4.05 2.11 -24.09 3.82 -41.47 0.23 -2.57 0.18 -2.90 -0.55 -2.90 -0.69 0 -0.78 -0.28 -0.55 -1.65 0.23 -1.38 0.14 -1.56 -0.51 -1.38 -0.41 0.14 -1.70 0.46 -2.85 0.74 -5.15 1.29 -4.87 1.01 -6.39 5.65 -2.48 7.63 -12.37 41.83 -14.07 48.59 -1.79 7.26 -2.53 7.77 -14.02 9.65 -3.40 0.60 -6.48 1.24 -6.80 1.52 -0.46 0.37 -0.83 0.28 -1.38 -0.41 -0.46 -0.51 -1.65 -1.20 -2.67 -1.47 -2.07 -0.60 -3.13 -1.79 -3.54 -4 -0.28 -1.52 0.46 -11.86 2.21 -31.86 1.33 -15.31 1.33 -14.80 0.46 -14.80 -0.46 0 -0.69 -0.51 -0.69 -1.61 0 -1.75 -0.51 -1.98 -2.48 -1.10 -0.64 0.32 -1.38 1.20 -1.65 1.98 -1.33 4.09 -7.03 29.01 -9.93 43.21 -1.10 5.56 -2.34 10.57 -2.71 11.17 -1.47 2.25 -3.26 2.90 -11.26 4.28 -2.90 0.51 -6.21 1.10 -7.36 1.38 -1.79 0.37 -2.16 0.32 -2.85 -0.51 -0.41 -0.46 -1.38 -1.01 -2.16 -1.15 -2.21 -0.46 -3.36 -2.02 -5.10 -7.03 -1.29 -3.82 -1.75 -4.64 -2.53 -4.64 -0.74 0 -1.29 -0.92 -2.76 -4.46 l-1.84 -4.46 -0.23 10.57 c-0.14 7.26 -0.41 10.85 -0.83 11.54 -1.20 2.11 -9.10 6.53 -14.30 7.95 -2.90 0.83 -3.03 0.83 -4.09 -0.05 -1.33 -1.01 -2.48 -1.10 -3.82 -0.28 -0.83 0.51 -1.10 0.37 -2.16 -0.92 -1.15 -1.33 -1.33 -1.38 -2.39 -0.83 -1.52 0.87 -10.16 3.72 -13.06 4.37 -1.79 0.41 -2.30 0.37 -2.76 -0.18 -0.28 -0.32 -1.24 -0.87 -2.11 -1.15 -1.93 -0.60 -2.67 -1.70 -3.68 -5.33 -0.60 -2.16 -1.01 -2.80 -1.75 -2.90 -0.69 -0.09 -1.06 -0.60 -1.29 -1.70 l-0.28 -1.52 -2.34 0.69 c-10.85 3.13 -16.92 5.33 -17.61 6.34 -0.37 0.55 -1.29 2.85 -1.98 5.06 -0.74 2.16 -1.79 4.46 -2.39 5.10 -1.24 1.33 -3.72 2.11 -10.76 3.36 -8.27 1.47 -8.46 1.47 -8.96 0.46 -0.28 -0.46 -0.87 -0.87 -1.33 -0.87 -1.33 0 -3.13 -1.70 -3.72 -3.45 -0.64 -1.98 0 -5.56 2.76 -15.17 2.11 -7.40 2.07 -7.13 1.15 -7.13 -0.87 0 -0.87 -0.09 0.18 -3.59 1.01 -3.26 1.24 -3.26 -2.71 -0.05 -5.65 4.55 -14.48 9.65 -22.39 12.83 -4.51 1.84 -4.32 1.47 -5.42 10.57 -1.01 8.46 -1.47 10.25 -2.90 11.63 -1.70 1.65 -6.02 3.54 -14.39 6.30 -3.91 1.29 -7.45 2.53 -7.86 2.76 -0.60 0.32 -1.01 0.14 -1.65 -0.69z m9.33 -10.02 c1.79 -0.64 4.51 -1.70 6.07 -2.39 3.26 -1.43 2.90 -0.51 4.28 -10.80 1.10 -8.23 1.47 -9.61 2.94 -10.99 0.55 -0.51 3.68 -2.11 6.94 -3.54 17.38 -7.49 27.67 -16.50 43.44 -38.06 2.39 -3.26 4.23 -5.33 4.73 -5.33 0.41 0 0.78 0.28 0.78 0.60 0 0.37 -1.38 4.41 -3.03 9.10 -6.07 17.01 -10.30 29.47 -12.09 35.44 -2.44 8.14 -4.28 15.58 -3.95 15.91 0.32 0.32 12.32 -2.16 12.83 -2.67 0.23 -0.23 0.92 -2.16 1.52 -4.23 1.33 -4.64 2.44 -6.48 4.41 -7.40 3.13 -1.47 25.01 -8.23 26.94 -8.27 2.71 -0.14 3.36 0.83 5.19 8.04 0.87 3.40 1.75 5.88 2.07 5.88 0.87 0 10.80 -3.59 11.31 -4.09 0.28 -0.28 0.09 -2.62 -0.55 -6.80 -2.99 -19.31 -3.77 -30.75 -4.05 -58.15 -0.23 -20.27 -0.37 -23.81 -0.92 -23.81 -1.10 0 -23.22 6.94 -24.96 7.81 -2.57 1.33 -3.95 3.13 -6.62 8.83 -2.62 5.52 -3.49 6.44 -5.29 5.47 -0.64 -0.37 -1.01 -1.20 -1.20 -2.71 -1.79 -14.34 -4.23 -20.50 -10.21 -25.79 -9.65 -8.64 -28.82 -10.16 -51.62 -4.14 -7.13 1.88 -19.68 6.90 -20.36 8.09 -0.09 0.23 0.05 3.08 0.41 6.34 2.85 29.05 3.68 60.31 2.44 94.56 -0.32 8 -0.41 14.85 -0.28 15.26 0.28 0.74 1.61 0.41 8.83 -2.16z m131.66 -22.39 c2.11 -1.01 4.46 -2.30 5.15 -2.80 l1.33 -0.92 0 -11.63 c0 -13.93 0.28 -16 2.53 -18.07 1.33 -1.24 1.98 -1.52 3.68 -1.52 2.67 0 3.36 0.69 6.76 6.99 3.08 5.61 4.51 8.96 6.80 15.77 l1.70 5.06 1.79 0.14 c1.84 0.18 9.93 -1.01 12.46 -1.79 1.38 -0.41 1.47 -0.64 1.98 -3.77 1.79 -10.76 10.21 -47.03 11.77 -50.84 1.38 -3.31 3.31 -4.46 9.65 -5.98 6.67 -1.56 8.32 -1.24 9.06 1.75 0.28 1.20 -0.55 14.53 -1.70 26.94 -1.43 15.26 -2.21 26.48 -1.93 26.75 0.32 0.32 10.94 -1.43 12.73 -2.11 0.97 -0.37 1.33 -1.06 2.21 -4.28 5.15 -19.08 14.48 -50.38 15.68 -52.77 1.70 -3.26 2.80 -3.82 13.19 -6.44 9.24 -2.30 10.25 -1.98 10.25 3.22 0 1.70 -0.51 8.04 -1.15 14.07 -1.79 17.28 -3.45 35.58 -3.45 38.29 l0 2.44 1.52 -0.23 c0.78 -0.14 3.08 -0.51 5.01 -0.83 1.98 -0.28 3.86 -0.78 4.23 -1.06 0.37 -0.28 1.06 -2.99 1.65 -6.02 1.43 -8 3.13 -14.53 4.05 -15.86 1.06 -1.52 5.42 -3.63 12.23 -5.93 6.67 -2.25 8.23 -2.39 9.33 -0.64 0.74 1.15 0.74 1.75 -0.23 13.15 -0.55 6.62 -0.92 12.09 -0.83 12.18 0.37 0.32 12.83 -2.44 13.38 -2.99 0.32 -0.32 0.74 -1.56 0.92 -2.76 1.15 -8 10.16 -47.40 14.07 -61.51 2.62 -9.52 3.59 -12.09 5.06 -13.33 1.70 -1.38 3.77 -1.47 5.01 -0.23 1.70 1.70 1.47 5.06 -3.17 44.59 -2.76 23.44 -3.45 30.29 -3.08 30.66 0.74 0.78 22.62 -2.48 38.06 -5.61 12 -2.44 10.57 -1.52 11.45 -7.40 0.41 -2.90 0.60 -5.19 0.37 -5.47 -0.28 -0.28 -2.07 -0.14 -4.92 0.37 -17.10 3.08 -18.89 3.31 -20.92 2.62 -2.71 -0.97 -3.68 -2.94 -3.31 -6.80 0.32 -3.45 0.92 -4.87 2.44 -5.88 0.60 -0.41 5.61 -1.52 11.26 -2.53 5.61 -1.01 10.34 -1.98 10.48 -2.16 0.41 -0.41 1.33 -5.98 1.33 -7.91 0 -1.47 -0.05 -1.52 -1.70 -1.24 -0.97 0.14 -4.14 0.60 -7.03 1.01 -4.83 0.69 -5.47 0.74 -6.99 0.09 -2.48 -1.06 -3.26 -2.90 -3.03 -7.17 0.09 -1.93 0.51 -4.09 0.87 -4.87 1.15 -2.44 2.21 -2.80 23.81 -7.91 l3.36 -0.83 2.44 -6.90 c3.63 -10.34 7.81 -19.40 9.65 -20.92 0.55 -0.46 0.87 -0.46 1.24 -0.09 0.64 0.64 -0.05 12.41 -1.65 28.59 -2.39 23.54 -3.54 47.95 -2.30 49.19 0.37 0.37 1.70 0.32 4.87 -0.18 7.13 -1.15 6.44 -0.37 7.91 -9.24 0.69 -4.32 1.61 -8.46 2.11 -9.42 1.06 -2.07 3.49 -3.36 6.53 -3.40 1.88 -0.05 2.39 0.18 3.95 1.70 0.97 0.97 4.55 5.42 7.95 9.98 3.40 4.51 6.25 8.23 6.39 8.23 0.60 0.09 10.11 -9.29 10.11 -9.88 0 -0.37 -1.79 -2.85 -3.95 -5.56 -4.28 -5.38 -5.24 -7.08 -5.24 -9.42 0 -2.21 1.43 -3.91 6.67 -8.04 6.62 -5.24 10.21 -9.24 12.83 -14.34 1.20 -2.34 2.44 -4.14 2.71 -4.05 0.32 0.09 0.69 1.52 0.87 3.13 0.46 4 1.38 6.34 4.55 11.22 4.05 6.25 5.15 9.01 4.92 11.91 -0.28 3.59 -2.07 6.25 -6.11 9.29 -4.41 3.22 -4.60 3.63 -3.72 7.13 0.97 3.72 3.45 9.61 4.23 9.93 1.79 0.69 11.54 -3.63 16.60 -7.36 5.93 -4.37 11.08 -10.62 13.61 -16.55 1.33 -3.03 1.47 -3.72 1.47 -8.37 0 -6.11 -0.46 -7.22 -5.38 -12.55 -1.79 -1.93 -3.72 -4.55 -4.32 -5.84 -2.62 -5.47 -0.37 -10.53 5.79 -13.24 2.39 -1.06 9.56 -3.03 14.25 -3.86 1.79 -0.32 2.11 -0.60 2.62 -1.98 1.61 -4.64 10.67 -39.53 10.71 -41.24 0 -1.52 -1.61 -1.75 -7.45 -1.10 -9.15 1.01 -19.77 4.23 -24.78 7.54 -1.38 0.87 -5.47 4.46 -9.10 7.91 -9.24 8.69 -12.50 10.71 -15.40 9.61 -0.41 -0.14 -2.07 -1.88 -3.72 -3.86 -3.36 -4.14 -7.77 -7.45 -11.45 -8.78 -3.03 -1.06 -7.86 -1.15 -10.85 -0.23 -6.02 1.84 -20.96 8.83 -27.35 12.73 l-3.86 2.34 -3.82 -0.55 c-2.34 -0.37 -6.11 -0.51 -9.56 -0.32 -6.30 0.23 -6.21 0.23 -30.20 6.71 -18.25 4.92 -17.47 4.78 -22.66 3.68 -2.34 -0.46 -4.83 -0.87 -5.52 -0.87 -1.38 0 -6.02 1.15 -14.48 3.68 -3.26 0.97 -7.13 2.07 -8.55 2.48 -2.57 0.74 -2.62 0.78 -2.90 2.67 -0.14 1.10 -1.52 11.72 -3.08 23.58 -1.56 11.91 -3.03 22.11 -3.36 22.71 -0.87 1.88 -2.67 2.80 -8.14 4.18 -6.07 1.56 -7.17 1.65 -8.60 0.64 -1.75 -1.20 -1.93 -2.48 -1.20 -7.63 0.83 -5.88 5.15 -27.49 7.31 -36.64 1.65 -7.08 1.88 -8.78 1.20 -8.78 -0.23 0 -3.17 0.55 -6.53 1.24 -6.39 1.29 -10.89 1.52 -16.96 0.87 -3.95 -0.41 -5.19 -0.18 -35.03 7.13 -9.29 2.25 -17.47 4.09 -18.20 4.09 -1.70 0 -2.99 -0.97 -5.19 -3.95 -1.15 -1.56 -2.16 -2.48 -2.76 -2.48 -1.65 0 -6.80 1.47 -7.31 2.07 -0.28 0.32 -1.84 5.24 -3.45 10.89 -8.27 29.05 -11.77 40.18 -13.19 41.97 -2.25 2.85 -5.24 2.39 -6.99 -1.10 -1.47 -2.85 -4.92 -12.46 -10.34 -28.59 -4.18 -12.55 -4.60 -13.52 -5.65 -13.65 -1.01 -0.14 -22.30 5.15 -22.80 5.65 -0.92 0.87 -2.11 48.64 -1.75 69.42 0.37 20.09 0.55 22.76 1.61 22.76 0.46 0 2.53 -0.83 4.60 -1.84z m248.24 -64.68 c0.32 -6.30 0.69 -13.01 0.83 -14.94 0.23 -3.22 0.18 -3.59 -0.55 -3.59 -0.69 0 -0.78 -0.28 -0.55 -1.84 0.18 -1.61 0.14 -1.84 -0.51 -1.65 -0.46 0.14 -4 0.97 -7.91 1.88 -9.56 2.11 -13.79 3.26 -14.39 3.86 -0.69 0.69 0.18 0.64 4.60 -0.18 4.78 -0.92 10.57 -0.97 9.84 -0.05 -0.41 0.51 -0.28 0.78 0.64 1.38 0.64 0.46 1.43 1.29 1.70 1.93 0.28 0.60 0.78 1.10 1.15 1.10 0.83 0 0.78 3.31 -0.14 9.52 -0.78 5.19 -1.10 6.16 -2.62 7.86 l-0.92 1.01 2.57 0 c2.57 0 3.08 0.28 2.16 1.20 -0.41 0.41 2.30 3.86 3.08 3.86 0.23 0 0.69 -5.10 1.01 -11.35z m68.96 -1.93 c4.73 -3.22 5.29 -4.51 3.49 -8.14 -1.01 -2.11 -1.43 -2.48 -2.48 -2.48 -0.87 0 -1.47 -0.37 -2.02 -1.38 -0.97 -1.65 -1.29 -1.70 -2.44 -0.41 -0.46 0.55 -2.90 2.62 -5.33 4.64 -2.48 1.98 -4.51 3.77 -4.51 3.95 0 0.18 1.06 1.56 2.34 3.08 1.29 1.52 2.94 3.54 3.77 4.46 l1.43 1.70 1.56 -1.84 c0.87 -1.01 2.76 -2.62 4.18 -3.59z m-166 -3.31 c1.33 -0.46 1.43 -0.64 1.70 -3.54 0.14 -1.70 1.20 -9.75 2.34 -17.93 1.15 -8.14 2.02 -15.03 1.93 -15.31 -0.28 -0.87 -7.72 34.02 -7.72 36.27 0 1.20 -0.09 1.15 1.75 0.51z"/>
  <path d="M107.66 326.11 c-1.93 -1.61 -1.79 -3.68 0.55 -9.19 4.87 -11.31 8.92 -15.45 13.06 -13.33 1.47 0.78 3.26 4 6.11 11.12 1.75 4.41 1.75 5.84 -0.18 7.77 -1.24 1.24 -2.30 1.65 -6.76 2.76 -7.22 1.70 -11.40 1.98 -12.78 0.87z m10.80 -8.04 l1.43 -0.46 -0.74 -1.84 -0.69 -1.84 -0.83 1.29 c-1.01 1.65 -1.52 3.36 -0.97 3.36 0.23 0 1.06 -0.23 1.79 -0.51z"/>
  <path d="M47.86 322.57 c-2.07 -1.06 -2.16 -2.57 -0.32 -8.18 2.11 -6.44 2.53 -10.85 1.47 -15.68 -0.41 -1.93 -0.64 -4.05 -0.46 -4.73 0.51 -1.98 2.67 -2.99 6.39 -2.99 9.19 0 14.53 4.18 14.53 11.31 0 7.08 -5.52 13.98 -15.08 18.89 -4.14 2.11 -4.83 2.25 -6.53 1.38z m13.06 -17.47 c1.29 -2.67 1.06 -3.77 -1.15 -5.24 -2.85 -1.98 -2.99 -1.75 -3.03 4.73 l-0.05 5.75 1.56 -1.52 c0.83 -0.83 2.02 -2.48 2.67 -3.72z"/>
  <path d="M445.32 259.04 c-1.47 -1.47 -1.52 -2.16 -0.60 -8.41 0.37 -2.44 0.83 -6.02 0.97 -7.91 0.55 -6.53 1.70 -7.54 8.04 -7.54 5.06 0 7.95 0.83 10.11 2.90 3.26 3.08 3.45 8.09 0.46 12.50 -2.76 4.14 -10.85 9.15 -15.31 9.52 -2.11 0.18 -2.53 0.05 -3.68 -1.06z m10.39 -10.76 c2.90 -3.03 3.22 -4.23 1.47 -5.01 -2.99 -1.38 -4.18 -0.09 -4.46 4.64 -0.09 1.70 -0.05 3.08 0.14 3.08 0.14 0 1.43 -1.24 2.85 -2.71z"/>
  <path d="M25.93 210.45 c-0.51 -0.60 -1.65 -1.43 -2.62 -1.88 -3.86 -1.79 -3.91 -4.32 -0.37 -32.50 3.40 -27.03 4.37 -40.09 5.06 -68.96 0.41 -17.19 0.51 -17.70 3.08 -19.72 1.24 -0.97 20.82 -7.63 29.88 -10.11 7.77 -2.16 10.85 -1.98 12.09 0.69 0.28 0.60 0.78 1.10 1.20 1.10 0.37 0 0.74 0.28 0.74 0.60 0.05 0.28 0.05 10.71 0 23.08 l-0.05 22.53 1.15 -3.17 c0.60 -1.70 1.38 -3.45 1.70 -3.82 0.46 -0.60 0.60 -0.60 0.83 0.14 0.37 1.06 2.02 -3.82 8 -23.72 4.92 -16.46 5.01 -16.64 6.30 -18.48 1.43 -1.93 4.23 -3.17 15.63 -6.80 22.34 -7.08 27.67 -7.81 29.60 -4.14 0.46 0.87 1.15 1.38 2.30 1.56 1.75 0.32 2.16 1.38 0.69 1.79 -0.55 0.14 -0.92 0.64 -0.92 1.20 0 0.51 -1.15 5.42 -2.57 10.89 -1.38 5.47 -2.44 10.02 -2.34 10.11 0.09 0.09 0.69 -0.23 1.38 -0.74 1.20 -0.92 3.36 -1.29 2.85 -0.46 -0.46 0.74 0.05 0.55 3.59 -1.20 13.10 -6.62 29.15 -6.80 38.48 -0.46 3.82 2.57 7.03 4.87 7.86 5.61 1.06 0.92 1.20 0.83 1.84 -1.10 0.97 -3.08 2.62 -5.93 4.18 -7.22 4.96 -4.23 20.04 -8.73 32.09 -9.65 8.55 -0.64 20.36 1.33 27.31 4.55 2.39 1.10 3.59 1.43 3.72 1.06 0.09 -0.32 0.37 -1.56 0.64 -2.76 0.69 -2.94 1.65 -4.32 3.72 -5.38 2.39 -1.20 29.51 -8.27 32.96 -8.60 3.22 -0.28 4.92 0.41 5.65 2.44 0.23 0.60 0.74 1.10 1.15 1.10 1.10 0 0.87 2.85 -0.92 9.65 -7.49 28.64 -11.45 44.96 -14.25 58.80 l-0.32 1.52 1.88 -0.32 c1.56 -0.28 1.88 -0.18 1.88 0.41 0 0.41 0.28 0.74 0.60 0.74 0.78 -0.05 9.98 -2.11 10.16 -2.34 0.14 -0.09 0.41 -4.73 0.74 -10.30 0.64 -13.10 1.79 -31.86 2.16 -35.49 0.23 -2.53 0.18 -2.90 -0.51 -2.90 -0.69 0 -0.74 -0.51 -0.46 -4.46 0.32 -5.33 1.38 -13.42 1.75 -13.84 0.18 -0.14 0.51 -0.05 0.78 0.23 0.41 0.41 0.83 0.18 1.65 -0.83 0.64 -0.74 1.79 -1.70 2.53 -2.07 0.74 -0.37 9.33 -2.02 19.08 -3.63 9.79 -1.65 22.89 -4 29.10 -5.29 14.62 -2.94 15.22 -2.94 19.31 0.05 0.55 0.41 2.02 0.09 6.53 -1.33 10.67 -3.45 13.88 -3.54 16 -0.55 0.55 0.78 1.33 1.38 1.79 1.38 0.74 0 0.97 1.01 1.88 7.68 l1.10 7.72 0.87 -2.21 c0.83 -1.98 1.70 -2.85 1.70 -1.70 0 1.75 1.24 -0.69 4.32 -8.46 3.54 -8.92 4.23 -10.07 6.99 -11.49 3.03 -1.52 19.22 -4.28 27.81 -4.73 6.30 -0.32 8.14 0.14 10.67 2.71 0.97 0.97 2.02 1.75 2.34 1.75 0.78 0 0.92 4.37 0.28 7.86 -1.01 5.29 -5.88 14.48 -25.19 47.76 -26.43 45.56 -40.50 68.63 -46.80 76.86 -2.99 3.86 -8 6.62 -8 4.37 0 -0.32 -0.92 -0.83 -2.07 -1.15 -1.88 -0.51 -2.39 -0.97 -4.96 -4.46 -1.56 -2.16 -3.82 -5.61 -5.01 -7.68 -3.40 -5.84 -3.40 -5.75 3.77 -18.34 8.69 -15.17 17.24 -32.18 16.50 -32.73 -0.09 -0.09 -2.67 -1.79 -5.70 -3.77 -2.99 -1.98 -7.03 -5.15 -8.92 -6.99 -2.30 -2.30 -3.72 -3.36 -4.23 -3.22 -0.60 0.14 -1.01 -0.23 -1.43 -1.24 l-0.60 -1.52 -12.64 3.40 c-6.94 1.84 -12.96 3.49 -13.33 3.63 -0.60 0.28 -0.60 0.37 0.09 0.51 0.41 0.09 3.08 -0.32 5.93 -0.97 6.02 -1.38 12.41 -1.65 11.45 -0.51 -0.41 0.51 -0.28 0.97 0.78 2.30 0.69 0.87 1.56 1.61 1.88 1.61 0.83 0 0.69 3.68 -0.37 10.48 -1.20 7.45 -1.65 8.14 -6.21 9.56 -1.84 0.60 -1.84 0.60 1.75 0.60 3.45 0.05 4.05 0.28 3.08 1.24 -0.32 0.32 0.14 1.10 1.38 2.39 l1.84 1.88 0 4.28 c0 5.42 -0.69 10.21 -1.70 11.91 -1.33 2.25 -0.78 2.07 -30.02 9.38 -6.44 1.61 -14.39 3.59 -17.70 4.37 -3.26 0.83 -6.21 1.65 -6.48 1.88 -0.32 0.23 -0.92 -0.05 -1.56 -0.74 -0.60 -0.64 -1.43 -1.15 -1.84 -1.15 -0.46 0 -1.33 -0.41 -2.02 -0.97 -0.74 -0.60 -1.52 -0.83 -2.07 -0.64 -0.78 0.23 -0.97 0 -1.24 -1.38 -0.23 -1.29 -0.46 -1.61 -1.01 -1.38 -2.67 1.01 -30.34 8.14 -36.82 9.47 -4.32 0.87 -4.32 0.87 -5.19 -0.05 -0.46 -0.51 -1.20 -0.92 -1.65 -0.92 -0.97 -0.05 -2.57 -1.29 -3.26 -2.62 -0.69 -1.33 -0.64 -6.53 0.18 -16.23 0.87 -10.48 0.87 -11.03 -0.05 -11.03 -0.64 0 -0.74 -0.37 -0.51 -2.34 0.18 -1.29 0.14 -2.25 -0.05 -2.16 -1.15 0.51 -13.75 9.06 -14.25 9.65 -0.51 0.60 0 1.56 3.08 6.25 2.02 3.08 4.14 6.44 4.69 7.54 1.20 2.34 1.65 6.94 0.92 9.19 -1.15 3.40 -5.70 6.02 -14.30 8.18 -2.16 0.51 -4.28 1.20 -4.78 1.43 -0.69 0.41 -1.06 0.28 -1.98 -0.69 -0.60 -0.64 -1.38 -1.20 -1.70 -1.20 -1.24 0 -3.13 -2.02 -5.15 -5.56 -2.30 -4 -2.71 -4.41 -3.59 -3.68 -0.46 0.37 -0.87 0 -1.75 -1.65 l-1.20 -2.11 -1.01 4.41 c-1.56 6.90 -2.30 7.45 -13.10 9.93 -3.54 0.83 -7.17 1.70 -8.04 1.93 -1.38 0.37 -1.75 0.28 -2.39 -0.51 -0.41 -0.51 -1.10 -0.92 -1.52 -0.92 -1.33 0 -3.26 -1.29 -3.82 -2.53 -0.41 -0.92 -0.83 -1.20 -1.47 -1.01 -0.83 0.23 -0.92 0 -0.92 -2.76 l0 -2.99 -1.75 2.25 c-4.32 5.47 -11.81 10.85 -18.71 13.52 -5.98 2.34 -11.08 3.22 -17.84 3.08 l-5.93 -0.09 -5.29 -3.59 c-5.33 -3.59 -6.11 -4 -6.11 -3.13 0 0.97 -1.33 0.41 -2.44 -0.97 l-1.10 -1.43 -0.37 2.62 c-0.46 3.91 -1.47 6.80 -2.71 8 -1.29 1.20 -7.59 4 -13.65 6.02 -2.39 0.83 -4.83 1.70 -5.38 1.98 -0.92 0.46 -1.20 0.37 -1.84 -0.46 -0.46 -0.51 -1.33 -1.06 -2.02 -1.24 -0.64 -0.14 -1.84 -0.83 -2.62 -1.47 -0.78 -0.64 -1.70 -1.10 -2.07 -0.97 -0.87 0.37 -1.20 -1.56 -1.20 -7.17 0 -2.80 -0.18 -4.46 -0.41 -4.18 -0.23 0.23 -0.87 2.71 -1.43 5.47 -1.20 6.07 -1.93 7.72 -3.86 8.92 -1.29 0.83 -13.29 4.51 -17.28 5.33 -0.87 0.18 -1.88 0.55 -2.21 0.83 -0.41 0.32 -0.87 0.18 -1.61 -0.46 -0.55 -0.55 -1.65 -1.10 -2.48 -1.29 -0.78 -0.14 -1.70 -0.60 -2.02 -0.97 -0.37 -0.41 -0.97 -0.60 -1.61 -0.46 -1.38 0.37 -1.47 0.14 -2.11 -4.41 l-0.55 -3.82 -0.78 4.46 c-0.92 5.15 -1.88 6.85 -4.51 7.86 -2.11 0.87 -10.39 2.44 -14.99 2.85 -1.75 0.18 -3.45 0.51 -3.72 0.74 -0.37 0.32 -0.83 0.09 -1.38 -0.60z m10.99 -8.46 c5.52 -1.06 5.75 -1.15 6.07 -3.72 0.78 -5.38 4.05 -21.24 5.06 -24.46 1.43 -4.51 3.86 -6.94 6.90 -6.94 1.98 0 2.34 1.84 3.17 15.03 1.06 16.50 1.06 16.69 2.34 16.69 1.29 0 14.94 -4.05 15.68 -4.64 0.28 -0.23 0.87 -2.11 1.33 -4.23 2.80 -13.33 6.11 -24.41 7.91 -26.57 2.25 -2.67 5.70 -3.54 7.26 -1.79 1.15 1.29 1.56 6.07 1.61 19.08 0 6.07 0.14 11.49 0.28 12.09 0.18 0.55 0.64 1.01 1.15 1.01 1.15 0 7.81 -2.48 11.45 -4.28 3.45 -1.70 2.90 -0.23 5.29 -13.70 2.34 -13.38 3.63 -16.46 5.15 -12.18 1.24 3.59 5.29 11.31 7.26 13.88 2.34 2.99 5.33 5.29 8.46 6.48 1.65 0.64 3.40 0.83 7.86 0.78 5.24 0 6.11 -0.14 10.21 -1.52 2.48 -0.87 6.07 -2.44 8 -3.54 11.31 -6.44 17.24 -16.37 25.65 -43.17 3.03 -9.56 3.82 -11.22 4.87 -10.57 0.74 0.46 0.41 5.29 -1.15 16.55 -2.48 17.79 -3.82 32.55 -3.08 33.70 0.32 0.51 1.38 0.41 5.42 -0.51 2.76 -0.64 6.16 -1.52 7.54 -2.02 l2.53 -0.83 1.65 -6.21 c1.79 -6.76 2.62 -8.78 4.18 -9.84 1.29 -0.92 4 -0.97 5.29 -0.05 1.15 0.83 4.46 5.88 8.41 13.01 l2.90 5.24 1.65 -0.32 c3.72 -0.64 12.46 -3.91 12.46 -4.64 0 -0.55 -1.75 -3.54 -5.15 -8.83 -4.32 -6.67 -4.96 -8.09 -4.96 -10.89 0 -3.95 1.24 -5.29 10.80 -11.45 8.69 -5.61 10.67 -8 12.60 -14.89 0.46 -1.75 1.15 -3.63 1.47 -4.14 0.74 -1.20 3.08 -2.39 4.69 -2.39 1.93 0 2.39 1.10 2.30 5.56 -0.09 3.26 -2.21 32.59 -3.13 42.84 -0.18 2.02 -0.05 2.71 0.41 2.90 0.78 0.32 21.38 -4.73 34.52 -8.46 13.01 -3.72 12 -3.54 13.33 -2.21 0.97 0.97 1.15 1.61 1.15 3.68 0 1.38 0.18 2.62 0.41 2.76 0.69 0.46 48.04 -11.58 48.59 -12.37 0.51 -0.69 1.33 -8.87 0.92 -9.29 -0.09 -0.14 -5.29 0.92 -11.49 2.34 -11.81 2.71 -12.83 2.85 -14.71 2.11 -2.02 -0.74 -2.71 -2.39 -2.62 -6.25 0.09 -4.18 0.87 -6.30 2.71 -7.26 0.74 -0.37 6.25 -1.93 12.27 -3.45 6.02 -1.52 11.12 -2.94 11.31 -3.13 0.51 -0.51 1.61 -9.19 1.24 -9.56 -0.14 -0.14 -3.31 0.37 -7.08 1.15 -10.71 2.21 -13.24 1.93 -14.43 -1.56 -0.64 -1.98 0.05 -8.09 1.10 -9.70 1.29 -1.98 2.85 -2.62 12.60 -5.15 5.24 -1.33 12.09 -3.22 15.26 -4.14 9.75 -2.80 10.07 -2.90 11.26 -2.44 0.87 0.32 1.15 0.87 1.38 2.62 0.18 1.20 0.55 2.90 0.83 3.77 1.20 3.45 7.72 9.06 14.57 12.46 4 1.98 5.06 2.99 5.06 4.92 0 4.83 -7.95 21.38 -20.32 42.11 -1.47 2.53 -2.67 4.73 -2.67 4.96 0 0.51 6.25 10.53 7.13 11.40 0.60 0.60 0.83 0.55 1.79 -0.37 2.94 -2.80 17.24 -25.65 33.93 -54.29 32.78 -56.31 37.24 -64.45 37.88 -69.09 0.18 -1.24 0.09 -2.44 -0.28 -3.08 -0.55 -1.01 -0.69 -1.06 -5.47 -0.78 -5.10 0.32 -17.01 2.07 -22.11 3.26 -1.65 0.37 -3.22 1.01 -3.49 1.43 -0.28 0.41 -3.13 7.26 -6.34 15.31 -3.17 8.04 -6.30 15.35 -6.94 16.27 -2.30 3.40 -6.25 3.17 -7.72 -0.41 -0.92 -2.39 -1.93 -7.59 -3.31 -17.24 -0.64 -4.46 -1.15 -8.23 -1.15 -8.37 0 -1.15 -8.78 1.10 -15.26 3.91 -3.49 1.52 -4.09 1.43 -6.25 -1.06 -1.88 -2.16 -2.57 -2.21 -10.07 -0.55 -8.87 1.93 -18.39 3.68 -34.66 6.39 -8.41 1.43 -15.68 2.67 -16.14 2.80 -0.41 0.14 -0.83 0.69 -0.97 1.24 -0.46 1.79 -2.11 24.82 -3.31 45.33 -1.24 21.56 -1.20 21.33 -3.95 22.99 -1.38 0.83 -11.81 3.26 -18.39 4.28 -3.95 0.60 -6.02 0.09 -6.94 -1.61 -0.92 -1.79 -0.28 -7.86 1.98 -18.25 1.88 -8.60 8.78 -36.73 11.26 -45.69 1.38 -5.01 2.39 -9.24 2.25 -9.38 -0.55 -0.55 -29.19 6.99 -29.70 7.77 -0.18 0.28 -0.74 2.85 -1.29 5.65 -1.29 6.39 -2.25 9.47 -3.03 9.47 -0.32 0 -1.06 -0.74 -1.61 -1.61 -1.43 -2.30 -5.19 -5.52 -8 -6.85 -8.27 -3.91 -21.33 -4.92 -33.05 -2.53 -8.09 1.61 -17.74 5.33 -19.68 7.59 -0.83 0.97 -3.40 8.55 -5.24 15.58 -1.43 5.42 -2.16 6.76 -3.59 6.57 -0.83 -0.09 -1.33 -1.06 -2.90 -5.52 -2.16 -6.07 -3.63 -8.83 -6.21 -11.63 -6.85 -7.40 -21.88 -8.18 -34.85 -1.79 -3.49 1.75 -5.06 2.85 -8.14 5.88 -5.52 5.47 -9.38 11.86 -16.18 26.85 -1.15 2.48 -1.75 3.31 -2.30 3.22 -2.25 -0.46 0.41 -13.52 10.07 -49.46 1.52 -5.61 2.67 -10.39 2.48 -10.62 -0.14 -0.23 -1.47 -0.14 -3.13 0.23 -8.78 2.02 -29.15 8.50 -30.62 9.75 -0.64 0.55 -2.25 5.24 -5.56 16.18 -5.65 18.80 -11.68 36.91 -14.20 42.75 -2.30 5.33 -3.91 7.13 -6.48 7.13 -1.24 0 -2.16 -0.32 -2.76 -0.92 -1.88 -1.93 -2.07 -4.83 -1.98 -34.57 0 -15.49 -0.14 -28.18 -0.32 -28.18 -1.79 0 -31.17 9.42 -32 10.30 -0.37 0.32 -0.69 6.67 -1.06 19.81 -0.74 27.95 -1.61 39.67 -4.64 62.75 -1.61 12.09 -2.25 17.93 -2.99 25.56 -0.14 1.29 -0.05 2.48 0.14 2.67 0.41 0.46 5.56 -0.05 10.34 -0.92z"/>
  <path d="M140.07 164.34 c-4.05 -1.43 -5.79 -4.55 -5.84 -10.16 0 -8.23 4.51 -18.89 9.84 -23.12 3.82 -3.08 7.86 -2.99 12 0.14 3.68 2.80 5.88 10.34 4.92 16.64 -1.84 11.72 -12 19.72 -20.92 16.50z m8.37 -8.73 c4 -3.72 5.98 -8.87 5.10 -12.96 -0.60 -2.71 -2.48 -5.65 -3.59 -5.65 -2.02 0 -5.70 6.16 -7.40 12.41 -1.20 4.32 -1.20 5.56 0 7.08 1.47 1.88 3.22 1.61 5.88 -0.87z"/>
  <path d="M212.98 145.08 c-2.94 -1.33 -3.13 -2.16 -2.57 -11.08 0.69 -11.08 1.29 -11.95 8.14 -11.95 4.64 0 7.45 1.01 9.65 3.45 5.29 5.88 1.52 15.49 -7.36 18.85 -3.54 1.29 -6.07 1.52 -7.86 0.74z m7.45 -9.52 c2.71 -2.48 2.99 -3.49 1.43 -4.87 -1.33 -1.15 -3.40 -1.43 -3.72 -0.46 -0.37 1.29 -0.55 7.22 -0.14 7.22 0.18 0 1.29 -0.83 2.44 -1.88z"/>
 </g>
 <g fill="#ca0f0d">
  <path d="M25.51 373.10 c-1.52 -0.64 -2.80 -1.98 -2.39 -2.39 0.14 -0.18 3.59 -1.43 7.63 -2.76 8.69 -2.90 13.15 -4.83 14.85 -6.48 1.43 -1.38 1.88 -3.17 2.90 -11.63 1.10 -9.10 0.92 -8.73 5.42 -10.57 10.11 -4.09 18.99 -9.61 26.85 -16.64 1.10 -0.97 2.34 -1.75 2.80 -1.75 0.83 0 0.78 0.37 -0.78 5.29 -1.43 4.60 -1.79 5.29 -2.62 5.29 -0.55 0 -2.53 1.10 -4.41 2.44 -4.09 2.90 -6.67 4.55 -8.18 5.19 -10.21 4.51 -12.83 5.88 -13.06 6.80 -0.09 0.51 -0.55 3.86 -0.97 7.40 -0.41 3.54 -1.01 7.49 -1.38 8.73 -0.74 2.57 -2.57 4.64 -4.92 5.56 -0.83 0.32 -3.26 1.24 -5.38 2.02 -2.16 0.78 -4.51 1.70 -5.29 2.02 -1.79 0.83 -7.26 2.11 -8.64 2.11 -0.60 -0.05 -1.70 -0.32 -2.44 -0.64z"/>
  <path d="M84.13 360.41 c-2.80 -1.24 -3.68 -3.22 -1.43 -3.22 1.70 0 10.44 -1.65 13.70 -2.53 3.08 -0.92 4.32 -2.39 5.79 -7.26 0.69 -2.16 1.61 -4.32 2.02 -4.87 0.92 -1.10 16.60 -6.30 20.41 -6.80 l2.11 -0.23 0.32 1.65 c0.18 0.97 0.46 2.02 0.60 2.39 0.14 0.41 -0.09 0.64 -0.78 0.64 -0.55 0 -2.80 0.60 -5.01 1.33 -2.16 0.74 -6.07 1.98 -8.60 2.76 -5.29 1.61 -4.78 1.06 -6.85 7.95 -0.97 3.26 -1.43 4.23 -2.67 5.15 -2.71 2.07 -16.78 4.23 -19.63 3.03z"/>
  <path d="M136.44 351.40 c-1.33 -0.69 -2.39 -2.16 -1.88 -2.67 0.14 -0.14 0.69 -0.28 1.15 -0.28 1.47 0 11.95 -3.59 14.11 -4.83 2.30 -1.33 3.26 -1.47 3.26 -0.41 0 0.37 0.60 1.29 1.33 2.02 l1.29 1.33 -1.33 1.29 c-0.87 0.83 -2.39 1.52 -4.64 2.07 -1.84 0.46 -4.46 1.15 -5.84 1.52 -3.22 0.83 -5.88 0.83 -7.45 -0.05z"/>
  <path d="M161.17 349.60 c-1.43 -0.74 -2.62 -2.07 -2.30 -2.57 0.09 -0.18 1.29 -0.60 2.57 -0.87 2.67 -0.64 8.69 -3.49 11.72 -5.61 3.26 -2.21 3.36 -2.67 3.36 -14.07 0 -9.93 0.23 -12.96 0.92 -12.96 0.55 0 2.39 3.40 4.28 7.86 1.88 4.41 2.02 5.01 1.01 5.01 -0.55 0 -0.69 0.78 -0.69 4.46 0 2.44 -0.23 5.79 -0.51 7.40 -0.46 2.57 -0.83 3.26 -2.44 4.87 -1.01 1.06 -3.63 2.80 -5.79 3.95 -5.98 3.17 -9.52 3.91 -12.14 2.53z"/>
  <path d="M195.83 341.47 c-1.70 -0.46 -3.82 -2.11 -3.45 -2.67 0.14 -0.18 0.87 -0.46 1.70 -0.60 4.41 -0.64 12.73 -2.21 14.11 -2.57 1.98 -0.60 3.54 -1.65 4.41 -2.94 0.37 -0.60 1.61 -5.61 2.71 -11.17 2.90 -14.20 8.60 -39.12 9.93 -43.21 0.55 -1.65 1.79 -2.34 5.06 -2.76 2.21 -0.28 2.30 -0.28 2.30 0.83 0 2.25 -0.55 3.95 -1.38 4.18 -0.64 0.18 -1.38 2.48 -3.59 11.63 -1.52 6.30 -3.95 16.92 -5.38 23.63 -4.55 21.47 -4.60 21.65 -7.86 23.22 -1.79 0.83 -13.19 2.99 -15.58 2.94 -0.74 0 -2.11 -0.23 -2.99 -0.51z"/>
  <path d="M236.38 333.75 c-0.97 -0.60 -1.47 -1.24 -1.38 -1.75 0.14 -0.60 1.38 -0.97 6.34 -1.84 11.95 -1.98 12.69 -2.48 14.48 -9.75 1.70 -6.76 11.58 -40.96 14.07 -48.59 l1.43 -4.28 2.34 -0.64 c4.96 -1.43 6.11 -1.65 7.59 -1.65 1.38 0 1.47 0.09 1.47 1.75 0 2.30 -0.32 2.62 -3.08 3.26 -1.29 0.32 -2.71 0.83 -3.08 1.10 -0.46 0.32 -1.93 4.51 -3.54 9.98 -1.52 5.19 -4.05 13.88 -5.65 19.31 -1.61 5.42 -4.14 14.02 -5.56 19.03 -1.43 5.06 -3.03 9.79 -3.54 10.53 -1.15 1.61 -2.07 1.98 -8.64 3.36 -6.67 1.38 -11.12 1.47 -13.24 0.18z"/>
  <path d="M286.17 326.02 c-0.74 -0.51 -1.65 -1.20 -2.02 -1.61 -0.78 -1.01 -0.78 -1.01 6.53 -2.16 3.26 -0.51 6.57 -1.20 7.36 -1.56 2.80 -1.15 3.13 -1.98 5.24 -12.60 1.10 -5.47 2.30 -10.39 2.67 -10.94 0.60 -0.97 6.67 -3.59 9.56 -4.18 l1.33 -0.28 -0.14 2.71 -0.14 2.67 -2.21 0.78 c-3.95 1.33 -4.23 1.93 -6.34 13.75 -2.07 11.40 -2.34 11.81 -10.25 13.29 -6.53 1.20 -9.75 1.24 -11.58 0.14z"/>
  <path d="M322.02 321.84 c-0.51 -0.23 -1.43 -0.92 -2.02 -1.61 l-1.10 -1.15 1.10 -0.41 c0.60 -0.28 4.51 -1.10 8.69 -1.93 8.46 -1.65 10.76 -2.57 11.72 -4.73 0.37 -0.83 1.75 -6.76 3.03 -13.19 3.72 -18.71 6.90 -32.18 7.63 -32.18 0.74 0 0.83 -1.47 -0.78 11.63 -2.39 19.58 -3.22 28.64 -2.71 30.29 0.51 1.88 0.55 1.75 -0.23 1.75 -0.37 0 -0.78 0.69 -0.97 1.75 -0.60 3.36 -1.88 5.47 -3.82 6.48 -3.86 1.98 -18.34 4.28 -20.55 3.31z"/>
  <path d="M113.55 319.91 c0.05 -1.33 3.95 -8.46 4.73 -8.60 0.60 -0.14 1.10 0.51 1.93 2.39 1.98 4.46 1.98 4.78 -0.05 5.61 -2.53 1.06 -6.62 1.43 -6.62 0.60z"/>
  <path d="M150.42 315.49 c-1.61 -12.78 -2.39 -29.51 -2.39 -51.03 l0 -17.61 1.29 0 c0.83 0 1.75 0.46 2.53 1.29 l1.24 1.29 -0.51 10.34 c-0.28 5.65 -0.64 21.28 -0.78 34.75 -0.18 13.47 -0.46 24.59 -0.60 24.73 -0.18 0.14 -0.51 -1.56 -0.78 -3.77z"/>
  <path d="M356.27 316.32 c-2.57 -0.78 -3.95 -2.30 -2.80 -2.99 0.18 -0.14 3.17 -0.55 6.53 -0.97 3.40 -0.41 7.81 -1.01 9.84 -1.38 2.02 -0.37 7.72 -1.38 12.69 -2.25 12.04 -2.16 21.19 -4.18 22.89 -5.10 2.11 -1.06 2.76 -2.80 3.72 -10.02 1.06 -7.54 1.10 -7.68 2.07 -7.68 0.55 0 0.69 0.69 0.69 3.68 0 4.46 0.74 8.09 1.88 9.24 0.46 0.46 0.69 0.87 0.46 0.87 -0.18 0 -0.64 1.20 -0.92 2.71 -0.60 2.94 -1.93 4.78 -4.05 5.61 -1.75 0.69 -17.06 3.95 -23.58 5.06 -20 3.31 -26.62 4.05 -29.42 3.22z"/>
  <path d="M54.38 312.97 c0.97 -5.70 1.29 -10.11 0.87 -12.73 -0.23 -1.70 -0.23 -2.94 0 -3.08 0.74 -0.46 4.23 0.28 5.79 1.20 2.48 1.52 3.03 4.28 1.47 7.72 -1.01 2.25 -5.10 6.76 -7.08 7.77 l-1.33 0.69 0.28 -1.56z"/>
  <path d="M422.28 304.14 c-4.32 -1.61 -3.40 -2.94 2.76 -3.95 7.36 -1.24 9.19 -2.07 10.53 -4.60 0.32 -0.64 1.06 -4.37 1.61 -8.27 0.55 -3.91 1.10 -7.26 1.24 -7.45 0.09 -0.23 0.69 -0.37 1.24 -0.37 0.74 0 1.61 0.74 2.94 2.53 1.20 1.56 1.65 2.53 1.24 2.53 -0.64 0 -0.87 0.74 -1.61 5.75 -1.56 10.76 -2.21 11.77 -8.55 13.06 -6.39 1.33 -9.33 1.52 -11.40 0.78z"/>
  <path d="M489.77 302.90 c-0.78 -0.23 -1.79 -0.83 -2.25 -1.33 -0.74 -0.83 -0.78 -1.01 -0.18 -1.56 0.37 -0.32 1.75 -0.83 3.13 -1.20 8.27 -1.98 18.34 -8.55 24.87 -16.23 6.62 -7.77 9.93 -17.06 8.78 -24.64 -0.69 -4.64 -2.11 -7.45 -5.84 -11.68 -4.37 -4.96 -5.24 -6.25 -5.24 -7.72 0 -2.44 3.63 -4.23 12.18 -5.88 7.40 -1.47 8.18 -1.75 9.52 -3.13 1.01 -1.06 1.93 -3.82 5.15 -15.54 6.76 -24.73 8.27 -31.31 7.77 -33.33 -0.18 -0.78 0 -0.92 1.10 -0.92 2.85 0 4.64 2.85 4.05 6.57 -0.97 6.11 -10.99 43.07 -12.46 45.88 -1.06 2.07 -2.44 2.67 -8.55 3.91 -7.77 1.52 -9.70 2.16 -12.41 4 -2.25 1.52 -1.79 2.85 2.90 8.18 4.51 5.15 5.42 6.62 6.57 10.48 0.92 3.08 0.92 5.84 0.09 10.25 -1.43 7.36 -5.24 13.98 -11.86 20.41 -6.48 6.30 -12.14 10.02 -18.76 12.27 -4.23 1.43 -6.67 1.79 -8.55 1.20z"/>
  <path d="M460.21 301.29 c-1.79 -1.52 -1.79 -2.11 0.09 -3.03 1.88 -0.92 12.64 -10.71 13.61 -12.41 1.24 -2.16 2.02 -1.65 3.03 2.02 l0.92 3.31 -5.10 4.69 c-2.80 2.57 -5.79 5.15 -6.67 5.65 -2.16 1.33 -4.18 1.24 -5.88 -0.23z"/>
  <path d="M380.63 284.33 c0 -1.29 -0.55 -1.10 8.73 -2.76 12.83 -2.21 13.47 -2.44 14.89 -5.19 0.69 -1.29 2.11 -10.02 2.11 -12.73 0 -1.43 0.14 -1.61 1.20 -1.61 0.69 0 1.75 0.55 2.57 1.43 1.38 1.38 1.43 1.43 1.10 4.69 -0.51 5.79 -1.65 11.54 -2.53 12.73 -0.64 0.92 -1.15 1.10 -2.62 1.01 -0.97 -0.05 -6.76 0.74 -12.83 1.75 -6.07 1.01 -11.40 1.84 -11.81 1.84 -0.55 0 -0.83 -0.37 -0.83 -1.15z"/>
  <path d="M474.28 280.14 c-0.92 -1.88 -2.25 -3.68 -6.21 -8.37 -1.33 -1.61 -2.39 -3.26 -2.30 -3.68 0.09 -0.37 1.47 -1.84 3.13 -3.17 1.65 -1.38 4.60 -3.91 6.53 -5.70 1.93 -1.75 3.72 -3.17 3.95 -3.17 0.37 0 3.77 4.73 3.77 5.29 0 0.14 -0.37 0.23 -0.83 0.23 -0.46 0 -1.43 0.64 -2.21 1.43 -0.74 0.78 -3.13 2.85 -5.33 4.64 -2.25 1.75 -4.05 3.40 -4.05 3.68 0 0.23 1.15 1.79 2.53 3.40 2.48 2.94 2.80 3.77 2.11 6.11 -0.28 1.01 -0.32 0.97 -1.10 -0.69z"/>
  <path d="M201.63 277.29 c-0.55 -0.87 -12.23 -35.86 -12.23 -36.64 0 -1.61 3.31 -0.51 4.32 1.52 1.10 2.25 10.07 29.28 10.02 30.29 -0.09 1.56 -1.75 5.38 -2.11 4.83z"/>
  <path d="M311.86 268.61 c0.41 -3.54 2.85 -15.63 6.21 -31.03 1.56 -6.99 2.80 -13.33 2.80 -14.11 0 -1.20 0.18 -1.43 1.10 -1.43 2.11 0 2.16 0.60 0.92 10.34 -0.60 5.01 -1.75 13.15 -2.48 18.11 -0.69 4.96 -1.43 10.25 -1.56 11.77 -0.83 8.09 -0.60 7.45 -2.94 8.23 -1.15 0.41 -2.62 0.74 -3.22 0.74 -1.10 0 -1.15 -0.05 -0.83 -2.62z"/>
  <path d="M387.39 259.36 c-0.41 -0.64 0.28 -2.90 1.01 -3.26 1.10 -0.55 23.77 -6.02 25.01 -6.02 0.18 0 0.32 1.24 0.28 2.76 -0.09 2.71 -0.14 2.76 -1.38 2.76 -2.16 0 -7.91 1.38 -8.69 2.07 -0.41 0.41 -1.65 0.69 -2.80 0.69 -1.10 0 -3.63 0.32 -5.61 0.69 -3.91 0.74 -7.49 0.92 -7.81 0.32z"/>
  <path d="M106.42 253.89 c-0.41 -1.47 -1.56 -4.28 -2.53 -6.25 -1.47 -2.94 -1.70 -3.63 -1.10 -3.86 0.37 -0.14 1.10 0.14 1.65 0.60 1.29 1.20 4.41 5.84 5.24 7.86 0.69 1.56 0.64 1.65 -0.55 2.94 -0.69 0.74 -1.43 1.33 -1.61 1.33 -0.18 0 -0.69 -1.20 -1.10 -2.62z"/>
  <path d="M450.69 252.29 c0.14 -0.60 0.41 -2.80 0.55 -4.96 0.37 -5.15 0.92 -5.98 3.86 -5.98 5.88 0 6.76 3.31 2.16 8.14 -2.53 2.71 -4.28 3.82 -5.88 3.82 -0.78 0 -0.92 -0.18 -0.69 -1.01z"/>
  <path d="M27.58 211.83 c-2.53 -1.70 -2.11 -2.39 1.61 -2.80 5.24 -0.55 13.47 -2.11 15.45 -2.90 2.90 -1.20 3.59 -2.62 4.96 -10.44 1.01 -5.61 1.38 -7.03 2.02 -7.13 0.64 -0.14 0.78 0.18 0.78 1.61 0 2.99 1.33 11.26 1.93 11.95 0.46 0.55 0.41 0.78 -0.23 1.10 -0.41 0.28 -0.78 0.87 -0.78 1.38 0 1.38 -1.70 4.46 -2.90 5.19 -1.70 1.10 -9.84 2.62 -15.72 2.90 -5.29 0.23 -5.56 0.18 -7.13 -0.87z"/>
  <path d="M62.29 207.83 c-0.51 -0.23 -1.29 -0.83 -1.75 -1.29 -1.10 -1.29 -0.60 -1.56 5.15 -3.03 14.80 -3.82 16.09 -4.60 17.28 -10.34 1.93 -9.15 3.72 -15.91 4.28 -16.09 0.37 -0.09 0.55 0.60 0.60 2.53 0.05 5.24 0.74 16 1.10 16.83 0.23 0.55 0.14 0.78 -0.32 0.78 -0.37 0 -0.92 0.78 -1.20 1.75 -0.97 3.17 -2.34 4.28 -6.57 5.47 -12.69 3.59 -16.41 4.28 -18.57 3.40z"/>
  <path d="M96.22 202.22 c-2.48 -1.61 -2.30 -1.79 4 -3.91 6.16 -2.07 12.78 -5.01 14.11 -6.21 1.10 -1.10 2.16 -4.05 2.67 -7.77 0.64 -4.46 1.29 -4.73 4.18 -1.61 1.01 1.15 1.75 2.07 1.56 2.07 -0.18 0 -0.69 1.93 -1.10 4.23 -1.10 5.93 -1.75 6.80 -6.85 9.24 -9.42 4.55 -15.68 5.88 -18.57 3.95z"/>
  <path d="M142.14 194.41 c-3.31 -0.41 -5.52 -1.06 -8.04 -2.34 -2.80 -1.43 -1.70 -1.79 4.18 -1.47 6.25 0.32 11.58 -0.55 17.79 -2.99 7.45 -2.85 15.81 -9.19 19.77 -14.99 1.06 -1.52 2.11 -2.53 2.62 -2.53 0.74 0 0.83 0.41 0.83 3.63 0 2.02 0.14 3.95 0.28 4.37 0.18 0.46 0.05 0.74 -0.41 0.74 -0.37 0 -1.38 0.83 -2.16 1.84 -0.78 1.01 -3.40 3.26 -5.75 5.06 -4.87 3.68 -10.48 6.25 -17.61 8.04 -4.64 1.20 -6.57 1.29 -11.49 0.64z"/>
  <path d="M381.46 187.05 c-0.74 -0.51 -1.29 -1.15 -1.29 -1.38 0 -0.23 1.06 -1.06 2.30 -1.84 1.29 -0.78 3.22 -2.57 4.32 -4 6.30 -8.23 20.36 -31.31 46.80 -76.86 23.31 -40.13 26.07 -45.79 25.33 -52.04 -0.28 -2.11 -0.23 -2.21 0.83 -2.21 2.67 0 4.55 2.85 4.55 6.80 0 5.70 -4.37 14.30 -27.21 53.65 -27.21 46.84 -42.20 70.98 -47.49 76.45 -2.21 2.25 -2.48 2.39 -4.64 2.39 -1.52 -0.05 -2.67 -0.32 -3.49 -0.97z"/>
  <path d="M188.98 185.72 c-0.83 -0.18 -2.07 -0.87 -2.71 -1.56 l-1.20 -1.15 1.29 -0.51 c0.69 -0.23 1.61 -0.46 2.02 -0.46 1.20 0 12 -2.67 14.25 -3.54 2.76 -1.06 4 -2.76 4.92 -6.67 1.38 -6.25 1.61 -6.80 2.48 -6.80 1.24 0 4.32 5.56 3.45 6.11 -0.37 0.18 -0.64 0.74 -0.64 1.15 0 1.70 -1.47 6.39 -2.48 7.95 -0.87 1.29 -1.65 1.79 -3.68 2.39 -5.06 1.52 -7.45 2.11 -10.85 2.62 -1.88 0.32 -3.86 0.60 -4.37 0.69 -0.51 0.09 -1.61 0 -2.48 -0.23z"/>
  <path d="M225.94 183.70 c-0.78 -0.32 -1.65 -0.92 -1.98 -1.29 -0.83 -1.01 -0.09 -1.43 4.69 -2.62 13.33 -3.26 17.24 -7.59 13.56 -14.85 -0.51 -0.97 -2.57 -4.28 -4.55 -7.31 -4.23 -6.39 -4.60 -7.40 -3.40 -8.78 0.51 -0.51 4.09 -3.08 8.04 -5.70 3.91 -2.57 7.40 -5.06 7.72 -5.42 1.24 -1.47 1.88 -0.87 1.88 1.75 0 4.37 -0.28 4.96 -3.17 6.39 -3.59 1.79 -9.88 6.39 -10.07 7.36 -0.09 0.46 1.61 3.54 3.72 6.90 2.16 3.31 4.37 6.94 4.92 8.04 1.29 2.57 1.29 5.84 0.05 8.27 -1.65 3.22 -4.83 4.87 -13.52 7.03 -4.18 1.01 -5.98 1.06 -7.91 0.23z"/>
  <path d="M258.12 177.72 c-1.61 -0.69 -2.71 -1.88 -2.34 -2.48 0.14 -0.28 1.24 -0.60 2.44 -0.78 2.48 -0.32 25.88 -6.25 34.62 -8.69 3.17 -0.92 5.98 -1.65 6.25 -1.65 0.23 0 0.69 1.01 0.92 2.30 l0.46 2.30 -2.07 0.64 c-1.70 0.55 -17.70 4.83 -24.87 6.67 -3.49 0.92 -11.35 2.34 -12.64 2.34 -0.74 -0.05 -2.02 -0.32 -2.76 -0.64z"/>
  <path d="M307.50 173.17 c-0.87 -0.55 -1.56 -1.33 -1.56 -1.70 0 -0.69 0.69 -0.92 16.78 -4.83 16.46 -4 33.65 -8.50 35.08 -9.19 0.83 -0.37 1.84 -1.29 2.30 -2.02 0.97 -1.65 1.70 -6.48 1.70 -11.63 l0 -4 1.52 0.23 c0.78 0.14 1.93 0.78 2.53 1.43 0.87 0.97 1.01 1.61 1.01 4.73 0 4.78 -0.78 10.44 -1.75 12.41 -1.01 2.07 -3.31 3.26 -8.60 4.55 -2.25 0.55 -4.55 1.20 -5.06 1.38 -0.51 0.23 -3.82 1.06 -7.36 1.88 -3.54 0.83 -6.85 1.75 -7.36 2.07 -0.51 0.28 -2.07 0.69 -3.45 0.83 -1.43 0.18 -4.51 0.83 -6.90 1.47 -7.40 1.98 -13.93 3.40 -15.68 3.45 -0.97 0 -2.30 -0.41 -3.22 -1.06z"/>
  <path d="M141.18 157.86 c-1.93 -2.48 -0.83 -9.70 2.57 -16.55 2.07 -4.18 3.59 -5.70 6.02 -6.02 1.75 -0.23 1.93 -0.14 3.26 1.70 3.95 5.47 2.53 14.62 -3.13 19.95 -2.21 2.02 -2.44 2.11 -5.06 2.11 -2.39 0 -2.85 -0.14 -3.68 -1.20z"/>
  <path d="M332.83 140.30 c0 -0.51 0.37 -1.20 0.83 -1.56 0.41 -0.37 5.42 -1.88 11.12 -3.31 10.99 -2.85 12.46 -3.40 13.52 -5.01 0.74 -1.06 2.57 -11.49 2.57 -14.34 0 -1.43 0.14 -1.61 1.20 -1.61 1.70 0 3.86 2.30 3.86 4.14 0 2.62 -1.88 13.93 -2.53 15.22 -0.87 1.61 -3.68 2.90 -6.02 2.76 -1.01 -0.05 -6.57 0.92 -12.32 2.21 -5.75 1.29 -10.85 2.34 -11.35 2.34 -0.55 0 -0.87 -0.32 -0.87 -0.83z"/>
  <path d="M285.75 137.87 c1.06 -7.31 7.03 -32.36 14.66 -61.55 0.87 -3.40 1.61 -6.67 1.61 -7.22 0 -0.87 0.28 -1.06 1.38 -1.06 1.43 0 3.86 2.07 3.36 2.90 -0.41 0.64 -1.52 9.06 -1.52 11.63 0 3.36 -0.46 5.15 -1.33 5.38 -0.55 0.14 -1.70 3.95 -4.78 16.23 -2.21 8.83 -4.92 20.18 -6.07 25.19 -1.10 5.06 -2.21 9.33 -2.39 9.52 -0.23 0.18 -1.47 0.51 -2.80 0.69 l-2.44 0.32 0.32 -2.02z"/>
  <path d="M216.29 134.14 c0.37 -5.98 0.74 -6.57 3.63 -6.16 2.85 0.32 4.14 1.61 4.32 4.09 0.14 1.88 -0.05 2.30 -1.61 4.05 -1.79 1.98 -3.91 3.17 -5.70 3.17 -0.92 0 -0.97 -0.09 -0.64 -5.15z"/>
  <path d="M73.60 106.24 l0.09 -27.17 1.06 0 c0.60 0 1.75 0.60 2.57 1.29 l1.43 1.33 -0.05 19.26 -0.09 19.26 -2.11 6.30 c-1.15 3.49 -2.30 6.48 -2.53 6.62 -0.32 0.18 -0.41 -9.24 -0.37 -26.89z"/>
  <path d="M338.80 112.95 c0 -2.44 0.92 -2.85 14.80 -6.48 7.22 -1.93 13.65 -3.49 14.25 -3.49 0.87 0 1.24 0.41 1.84 2.02 l0.74 1.98 -4.41 1.24 c-2.48 0.69 -5.29 1.65 -6.30 2.16 -1.01 0.46 -2.67 0.87 -3.68 0.87 -1.01 0 -4.14 0.51 -6.90 1.15 -2.76 0.60 -6.21 1.24 -7.68 1.43 -2.62 0.28 -2.67 0.28 -2.67 -0.87z"/>
  <path d="M188.29 94.65 c-0.87 -1.06 -1.10 -1.61 -0.74 -1.98 0.78 -0.78 2.99 1.70 2.44 2.71 -0.41 0.69 -0.60 0.60 -1.70 -0.74z"/>
  <path d="M132.39 95.02 c0 -0.41 1.33 -5.88 2.94 -12.14 1.65 -6.25 3.13 -12.32 3.36 -13.47 0.37 -1.88 0.51 -2.07 1.84 -2.21 1.15 -0.14 1.61 0.09 2.30 1.15 1.20 1.84 0.97 4.73 -1.15 13.01 -1.01 3.95 -1.93 7.59 -2.02 8.04 -0.05 0.51 -0.97 1.56 -1.98 2.34 -5.10 3.86 -5.29 4 -5.29 3.26z"/>
  <path d="M404.36 76.54 c-0.55 -2.16 -2.99 -18.85 -2.76 -19.03 0.09 -0.09 0.83 0 1.61 0.23 2.34 0.69 3.26 2.39 4.14 7.77 l0.83 4.87 -1.33 3.26 c-1.61 4 -2.07 4.51 -2.48 2.90z"/>
 </g>
 <g fill="#c0c2c8">
  <path d="M181.68 331.12 c-0.09 -5.38 -0.05 -5.65 0.83 -5.65 0.51 0 0.92 0.23 0.92 0.46 0 0.28 -0.32 0.46 -0.69 0.46 -0.55 0 -0.69 1.01 -0.83 5.19 l-0.14 5.15 -0.09 -5.61z"/>
 </g>
</svg>